<svg xmlns="http://www.w3.org/2000/svg" xmlns:xlink="http://www.w3.org/1999/xlink" width="1920" height="731" viewBox="0 0 1920 731">
  <defs>
    <linearGradient id="linear-gradient" x1="1.144" y1="0.5" x2="0.635" y2="0.475" gradientUnits="objectBoundingBox">
      <stop offset="0" stop-color="#8351a8"/>
      <stop offset="1" stop-color="#1fad9f"/>
    </linearGradient>
    <filter id="Ellipse_26" x="732.94" y="65" width="455" height="456" filterUnits="userSpaceOnUse">
      <feOffset dy="3" input="SourceAlpha"/>
      <feGaussianBlur stdDeviation="3" result="blur"/>
      <feFlood flood-opacity="0.29"/>
      <feComposite operator="in" in2="blur"/>
      <feComposite in="SourceGraphic"/>
    </filter>
    <filter id="Path_708" x="684.94" y="18" width="550.12" height="550.12" filterUnits="userSpaceOnUse">
      <feOffset dy="3" input="SourceAlpha"/>
      <feGaussianBlur stdDeviation="3" result="blur-2"/>
      <feFlood flood-opacity="0.29"/>
      <feComposite operator="in" in2="blur-2"/>
      <feComposite in="SourceGraphic"/>
    </filter>
    <radialGradient id="radial-gradient" cx="0.5" cy="0.5" r="0.5" gradientUnits="objectBoundingBox">
      <stop offset="0" stop-color="#5fe2d4"/>
      <stop offset="1" stop-color="#1fad9f"/>
    </radialGradient>
    <filter id="Ellipse_29" x="775.94" y="111" width="369" height="368" filterUnits="userSpaceOnUse">
      <feOffset dy="3" input="SourceAlpha"/>
      <feGaussianBlur stdDeviation="3" result="blur-3"/>
      <feFlood flood-opacity="0.29"/>
      <feComposite operator="in" in2="blur-3"/>
      <feComposite in="SourceGraphic"/>
    </filter>
  </defs>
  <g id="Group_203" data-name="Group 203">
    <rect id="Rectangle_36" data-name="Rectangle 36" width="1920" height="731" fill="url(#linear-gradient)"/>
  </g>
  <g transform="matrix(1, 0, 0, 1, 0, 0)" filter="url(#Ellipse_26)">
    <g id="Ellipse_26-2" data-name="Ellipse 26" transform="translate(741.94 71)" fill="none" stroke="#fff" stroke-width="5" opacity="0.6">
      <ellipse cx="218.5" cy="219" rx="218.5" ry="219" stroke="none"/>
      <ellipse cx="218.5" cy="219" rx="216" ry="216.5" fill="none"/>
    </g>
  </g>
  <g transform="matrix(1, 0, 0, 1, 0, 0)" filter="url(#Path_708)">
    <g id="Path_708-2" data-name="Path 708" transform="translate(693.94 24)" fill="none">
      <path d="M266.06,0C413,0,532.12,119.119,532.12,266.06A265.33,265.33,0,0,1,515.7,358.291C478.11,459.833,380.527,532.12,266.06,532.12,119.119,532.12,0,413,0,266.06S119.119,0,266.06,0Z" stroke="none"/>
      <path d="M 266.059814453125 4.99993896484375 C 248.3439636230469 4.99993896484375 230.6407470703125 6.78448486328125 213.44189453125 10.3038330078125 C 196.6825866699219 13.73321533203125 180.19775390625 18.8504638671875 164.4450988769531 25.5133056640625 C 148.9773254394531 32.05560302734375 134.0582580566406 40.1534423828125 120.1022338867188 49.58197021484375 C 106.277587890625 58.92166137695312 93.27737426757812 69.64788818359375 81.46258544921875 81.46258544921875 C 69.64788818359375 93.27737426757812 58.92166137695312 106.277587890625 49.58197021484375 120.1022338867188 C 40.1534423828125 134.0582580566406 32.05560302734375 148.9773254394531 25.5133056640625 164.4450988769531 C 18.8504638671875 180.19775390625 13.73321533203125 196.6825866699219 10.3038330078125 213.44189453125 C 6.78448486328125 230.6407470703125 4.99993896484375 248.3439636230469 4.99993896484375 266.059814453125 C 4.99993896484375 283.7756652832031 6.78448486328125 301.4788818359375 10.3038330078125 318.677734375 C 13.73321533203125 335.43701171875 18.8504638671875 351.921875 25.5133056640625 367.6745300292969 C 32.05560302734375 383.142333984375 40.1534423828125 398.0614013671875 49.58197021484375 412.0173034667969 C 58.92166137695312 425.8419494628906 69.64788818359375 438.8422241210938 81.46258544921875 450.6569519042969 C 93.27737426757812 462.4716796875 106.277587890625 473.1978759765625 120.1022338867188 482.5376586914062 C 134.0581665039062 491.9660949707031 148.9773254394531 500.06396484375 164.4450988769531 506.6063232421875 C 180.19775390625 513.2691040039062 196.6825866699219 518.3862915039062 213.44189453125 521.8157348632812 C 230.6407470703125 525.3350830078125 248.3439636230469 527.11962890625 266.059814453125 527.11962890625 C 293.5535888671875 527.11962890625 320.6278686523438 522.867431640625 346.5306701660156 514.4813842773438 C 371.5919799804688 506.36767578125 395.2398071289062 494.4988098144531 416.8172607421875 479.2045288085938 C 438.1250915527344 464.101318359375 457.0179443359375 445.9445190429688 472.9711608886719 425.2384643554688 C 489.0814514160156 404.3284606933594 501.8794555664062 381.2201538085938 511.0097351074219 356.5556030273438 C 516.2520141601562 342.3941650390625 520.274169921875 327.6475219726562 522.964599609375 312.7251586914062 C 525.7216796875 297.4332275390625 527.11962890625 281.7327270507812 527.11962890625 266.059814453125 C 527.11962890625 248.3439636230469 525.3350830078125 230.6407470703125 521.8157348632812 213.44189453125 C 518.3862915039062 196.6825866699219 513.2691040039062 180.19775390625 506.6063232421875 164.4450988769531 C 500.06396484375 148.9773254394531 491.9660949707031 134.0581665039062 482.5376586914062 120.1022338867188 C 473.1978759765625 106.277587890625 462.4716796875 93.27737426757812 450.6569519042969 81.46258544921875 C 438.8422241210938 69.64788818359375 425.8419494628906 58.92166137695312 412.0173034667969 49.58197021484375 C 398.0614013671875 40.1534423828125 383.142333984375 32.05560302734375 367.6745300292969 25.5133056640625 C 351.921875 18.8504638671875 335.43701171875 13.73321533203125 318.677734375 10.3038330078125 C 301.4788818359375 6.78448486328125 283.7756652832031 4.99993896484375 266.059814453125 4.99993896484375 M 266.059814453125 -6.103515625e-05 C 413.0006103515625 -6.103515625e-05 532.11962890625 119.1190185546875 532.11962890625 266.059814453125 C 532.11962890625 298.5337524414062 526.3016967773438 329.6487426757812 515.6987915039062 358.2913818359375 C 478.1101684570312 459.8333129882812 380.5266723632812 532.11962890625 266.059814453125 532.11962890625 C 119.1190185546875 532.11962890625 -6.103515625e-05 413.0006103515625 -6.103515625e-05 266.059814453125 C -6.103515625e-05 119.1190185546875 119.1190185546875 -6.103515625e-05 266.059814453125 -6.103515625e-05 Z" stroke="none" fill="#fff"/>
    </g>
  </g>
  <g transform="matrix(1, 0, 0, 1, 0, 0)" filter="url(#Ellipse_29)">
    <g id="Ellipse_29-2" data-name="Ellipse 29" transform="translate(784.94 117)" stroke="#fff" stroke-width="5" fill="url(#radial-gradient)">
      <ellipse cx="175.5" cy="175" rx="175.5" ry="175" stroke="none"/>
      <ellipse cx="175.5" cy="175" rx="173" ry="172.5" fill="none"/>
    </g>
  </g>
</svg>
